# AST/ASF file generated using VICON BodyLanguage
# -----------------------------------------------
:version 1.10
:name VICON
:units
  mass 1.0
  length 0.45
  angle deg
:documentation
   .ast/.asf automatically generated from VICON data using
   VICON BodyBuilder and BodyLanguage model FoxedUp or BRILLIANT.MOD
:root
   order TX TY TZ RX RY RZ
   axis XYZ
   position 0 0 0  
   orientation 0 0 0 
:bonedata
  begin
     id 1 
     name lhipjoint
     direction 0.78388 -0.462562 0.414208 
     length 3.01181 
     axis 0 0 0  XYZ
  end
  begin
     id 2 
     name lfemur
     direction 0.34202 -0.939693 0  
     length 6.04673  
     axis 0 0 20  XYZ
    dof rx ry rz
    limits (-160.0 20.0)
           (-70.0 70.0)
           (-60.0 70.0)
  end
  begin
     id 3 
     name ltibia
     direction 0.34202 -0.939693 0   
     length 7.211   
     axis 0 0 20   XYZ
    dof rx
    limits (-10.0 170.0)
  end
  begin
     id 4 
     name lfoot
     direction 0.121887 -0.334882 0.934344   
     length 2.13567   
     axis -90 7.62852e-016 20   XYZ
    dof rx rz
    limits (-45.0 90.0)
           (-70.0 20.0)
  end
  begin
     id 5 
     name ltoes
     direction 1.53555e-011 -4.2179e-011 1   
     length 1.05957   
     axis -90 7.62852e-016 20   XYZ
    dof rx
    limits (-90.0 20.0)
  end
  begin
     id 6 
     name rhipjoint
     direction -0.769387 -0.475875 0.426129   
     length 2.92756  
     axis 0 0 0  XYZ 
  end
  begin
     id 7 
     name rfemur
     direction -0.34202 -0.939693 0   
     length 6.35468   
     axis 0 0 -20   XYZ
    dof rx ry rz
    limits (-160.0 20.0)
           (-70.0 70.0)
           (-70.0 60.0)
  end
  begin
     id 8 
     name rtibia
     direction -0.34202 -0.939693 0   
     length 7.37886   
     axis 0 0 -20   XYZ
    dof rx
    limits (-10.0 170.0)
 end
 begin
     id 9 
     name rfoot
     direction -0.101763 -0.279592 0.954711   
     length 2.21478  
     axis -90 -7.62852e-016 -20   XYZ
    dof rx rz
    limits (-45.0 90.0)
           (-20.0 70.0)
  end
  begin
     id 10 
     name rtoes
     direction -1.53494e-011 -4.21851e-011 1   
     length 1.10506   
     axis -90 -7.62852e-016 -20   XYZ
    dof rx
    limits (-90.0 20.0)
  end
  begin
     id 11 
     name lowerback
     direction 0.00747405 0.999267 0.0375481   
     length 2.13259   
     axis 0 0 0   XYZ
    dof rx ry rz
    limits (-20.0 45.0)
           (-30.0 30.0)
           (-30.0 30.0)
  end
  begin
     id 12 
     name upperback
     direction 0.00661626 0.996177 0.0871029   
     length 2.10528   
     axis 0 0 0   XYZ
    dof rx ry rz
    limits (-20.0 45.0)
           (-30.0 30.0)
           (-30.0 30.0)
  end
  begin
     id 13 
     name thorax
     direction 0.00320659 0.997679 0.0680167   
     length 2.11338   
     axis 0 0 0   XYZ
    dof rx ry rz
    limits (-20.0 45.0)
           (-30.0 30.0)
           (-30.0 30.0)
  end
  begin
     id 14 
     name lowerneck
     direction 0.0374841 0.973033 0.227602   
     length 1.42765   
     axis 0 0 0   XYZ
    dof rx ry rz
    limits (-20.0 45.0)
           (-30.0 30.0)
           (-30.0 30.0)
  end
  begin
     id 15 
     name upperneck
     direction 0.00481585 0.989155 -0.146795   
     length 1.47593   
     axis 0 0 0   XYZ
    dof rx ry rz
    limits (-20.0 45.0)
           (-30.0 30.0)
           (-30.0 30.0)
  end
  begin
     id 16
     name head
     direction -0.00292522 0.997206 -0.0746423  
     length 1.48116  
     axis 0 0 0   XYZ
    dof rx ry rz
    limits (-20.0 45.0)
           (-30.0 30.0)
           (-30.0 30.0)
  end
  begin
     id 17 
     name lclavicle
     direction 0.951444 0.305606 0.0368784  
     length 3.01855  
     axis 0 0 0   XYZ
    dof ry rz
    limits (-20.0 10.0)
           (0.0 20.0)
  end
  begin
     id 18 
     name lhumerus
     direction 1 -4.48977e-011 2.61664e-027   
     length 5.52731   
     axis 180 -30 -90   XYZ
    dof rx ry rz
    limits (-60.0 90.0)
           (-90.0 90.0)
           (-90.0 90.0)
  end
  begin
     id 19
     name lradius
     direction 1 -4.48944e-011 8.22157e-027   
     length 3.11059   
     axis 180 -30 -90   XYZ
    dof rx
    limits (-10.0 170.0)
  end
  begin
     id 20
     name lwrist
     direction 1 -4.48976e-011 1.5779e-026   
     length 1.5553   
     axis -1.15221e-014 90 90   XYZ
    dof ry
    limits (-180.0 0.0)
 end
  begin
     id 21 
     name lhand
     direction 1 -4.49025e-011 3.1558e-026   
     length 0.419626   
     axis -2.01367e-014 90 90   XYZ
    dof rx rz
    limits (-90.0 90.0)
           (-45.0 45.0)
  end
  begin
     id 22 
     name lfingers
     direction 1 -4.4904e-011 6.31161e-026   
     length 0.338313   
     axis -4.02734e-014 90 90   XYZ
    dof rx
    limits (0.0 90.0)
  end
  begin
     id 23
     name lthumb
     direction 0.707107 -6.35004e-011 0.707107   
     length 0.485752   
     axis -90 45 2.85299e-015   XYZ
    dof rx rz
    limits (-45.0 45.0)
           (-45.0 45.0)
  end
  begin
     id 24 
     name rclavicle
     direction -0.968876 0.223791 0.105816   
     length 3.04177  
     axis 0 0 0   XYZ 
    dof ry rz
    limits (-10.0 20.0)
           (-20.0 0.0)
  end
  begin
     id 25 
     name rhumerus
     direction -1 -4.48962e-011 -1.01384e-027  
     length 5.25396   
     axis 180 30 90   XYZ
    dof rx ry rz
    limits (-90.0 60.0)
           (-90.0 90.0)
           (-90.0 90.0)
  end
  begin
     id 26 
     name rradius
     direction -1 -4.48955e-011 8.88542e-027   
     length 3.10567   
     axis 180 30 90   XYZ
    dof rx
    limits (-10.0 170.0)
  end
  begin
     id 27 
     name rwrist
     direction -1 -4.48994e-011 1.5779e-026   
     length 1.55283   
     axis -1.15221e-014 -90 -90   XYZ
    dof ry
    limits (-180.0 0.0)
  end
  begin
     id 28
     name rhand
     direction -1 -4.48891e-011 3.1558e-026   
     length 0.498676   
     axis -2.01367e-014 -90 -90   XYZ
    dof rx rz
    limits (-90.0 90.0)
           (-45.0 45.0)
  end
  begin
     id 29
     name rfingers
     direction -1 -4.48972e-011 6.31161e-026   
     length 0.402045   
     axis -4.02734e-014 -90 -90   XYZ
    dof rx
    limits (0.0 90.0)
  end
  begin
     id 30
     name rthumb
     direction -0.707107 -6.34849e-011 0.707107   
     length 0.577259   
     axis -90 -45 -2.85299e-015   XYZ
    dof rx rz
    limits (-45.0 45.0)
           (-45.0 45.0)
  end
:hierarchy
  begin
    root lhipjoint rhipjoint lowerback
    lhipjoint lfemur
    lfemur ltibia
    ltibia lfoot
    lfoot ltoes
    rhipjoint rfemur
    rfemur rtibia
    rtibia rfoot
    rfoot rtoes
    lowerback upperback
    upperback thorax
    thorax lowerneck lclavicle rclavicle
    lowerneck upperneck
    upperneck head
    lclavicle lhumerus
    lhumerus lradius
    lradius lwrist
    lwrist lhand lthumb
    lhand lfingers
    rclavicle rhumerus
    rhumerus rradius
    rradius rwrist
    rwrist rhand rthumb
    rhand rfingers
  end

#!OML:ASF H:\Pregnant\Project 1\Capture day 1\Session 1\femalepreg.ASF
:FULLY-SPECIFIED
:DEGREES
1
root 3.05252 2.23648 19.877 -72.1367 -83.5091 12.3883
lowerback 11.4799 -2.43224 -12.183
upperback 15.2498 -5.22157 0.171528
thorax 11.5891 -4.62691 6.84684
lowerneck -35.6227 11.1214 13.255
upperneck 38.1317 10.9202 -4.56383
head 24.218 5.1053 -1.58165
rclavicle 7.27552e-014 4.92986e-014
rhumerus -88.3842 22.7681 -87.0732
rradius 34.3984
rwrist -22.6469
rhand -60.2033 -80.4237
rfingers 7.12502
rthumb 147.655 -72.4403
lclavicle 7.27552e-014 4.92986e-014
lhumerus -86.5672 14.4295 43.6185
lradius 29.6594
lwrist 89.3507
lhand 116.946 -17.5046
lfingers 7.12502
lthumb 144.946 -44.048
rfemur -87.341 -8.80546 -4.09549
rtibia 127.526
rfoot 13.9736 23.5483
rtoes -9.57456
lfemur -78.4018 1.76873 2.7377
ltibia 116.043
lfoot 14.1492 -26.9087
ltoes -27.0587
2
root 3.02038 2.23211 19.8804 -66.1112 -84.275 6.61548
lowerback 10.884 -2.23156 -10.0082
upperback 15.11 -4.69299 0.152929
thorax 11.3099 -4.05418 5.62129
lowerneck -35.3069 9.96341 11.8927
upperneck 38.1383 9.38242 -3.43242
head 23.5322 4.5393 -1.2268
rclavicle 3.1408e-014 6.36111e-014
rhumerus -89.0622 20.4145 -86.5182
rradius 34.4554
rwrist -22.1764
rhand -60.2436 -80.0582
rfingers 7.12502
rthumb 147.616 -72.8136
lclavicle 3.1408e-014 6.36111e-014
lhumerus -85.3428 12.2568 44.5795
lradius 29.6757
lwrist 89.8019
lhand 116.793 -16.2192
lfingers 7.12502
lthumb 144.801 -42.7286
rfemur -87.4351 -9.02594 -3.02122
rtibia 127.624
rfoot 13.8981 23.3148
rtoes -9.76109
lfemur -79.3904 2.0785 3.89224
ltibia 116.546
lfoot 14.1135 -27.4499
ltoes -27.2612
3
root 2.99476 2.22763 19.8891 -72.6979 -83.6307 12.8103
lowerback 10.7897 -1.6506 -9.74878
upperback 15.0869 -3.80435 -0.320022
thorax 11.0773 -3.51386 4.97231
lowerneck -34.7097 8.87427 10.5281
upperneck 38.4269 8.04446 -2.33989
head 22.4048 4.01672 -0.779074
rclavicle -7.95139e-015 -1.90833e-014
rhumerus -89.7834 18.3181 -85.9062
rradius 34.5463
rwrist -21.6879
rhand -60.2874 -79.6326
rfingers 7.12502
rthumb 147.575 -73.2477
lclavicle -7.95139e-015 -1.90833e-014
lhumerus -84.36 10.2243 45.585
lradius 29.6786
lwrist 90.2966
lhand 116.54 -11.6936
lfingers 7.12502
lthumb 144.561 -38.1459
rfemur -87.4745 -9.1448 -4.11253
rtibia 127.91
rfoot 13.82 23.891
rtoes -9.84146
lfemur -78.5072 1.8719 2.93871
ltibia 116.63
lfoot 13.8256 -26.9379
ltoes -27.0813
4
root 2.96847 2.22336 19.8897 -71.2382 -83.9089 11.3693
lowerback 10.4853 -1.30773 -8.35342
upperback 14.8822 -3.17561 -0.472561
thorax 10.7284 -2.98139 4.04657
lowerneck -33.8093 7.8012 9.41663
upperneck 38.2048 6.68394 -1.45867
head 21.727 3.50591 -0.560224
rclavicle -7.95139e-016 -3.18055e-015
rhumerus -90.6165 16.1507 -85.283
rradius 34.5427
rwrist -21.1154
rhand -60.2607 -78.923
rfingers 7.12502
rthumb 147.6 -73.9521
lclavicle -7.95139e-016 -3.18055e-015
lhumerus -83.5287 8.04962 46.3518
lradius 29.6817
lwrist 90.6777
lhand 116.511 -11.1704
lfingers 7.12502
lthumb 144.533 -37.6162
rfemur -87.5089 -9.21945 -3.69407
rtibia 128.08
rfoot 13.3045 24.0071
rtoes -11.4311
lfemur -78.798 2.06331 3.36653
ltibia 116.936
lfoot 13.689 -27.1161
ltoes -26.9289
5
root 2.94172 2.21871 19.8932 -71.336 -83.9847 11.404
lowerback 10.3412 -1.01079 -7.46782
upperback 14.6698 -2.66763 -0.613192
thorax 10.3899 -2.57932 3.41723
lowerneck -32.8944 6.93502 8.36821
upperneck 37.9861 5.64862 -0.650302
head 21.1402 3.10001 -0.290471
rclavicle 1.19271e-014 1.90833e-014
rhumerus -91.5112 14.6202 -84.7789
rradius 34.6482
rwrist -20.7303
rhand -60.2655 -78.4019
rfingers 7.12502
rthumb 147.595 -74.4741
lclavicle 1.19271e-014 1.90833e-014
lhumerus -83.1253 6.26545 47.0605
lradius 29.7224
lwrist 91.0687
lhand 116.41 -9.1336
lfingers 7.12502
lthumb 144.438 -35.5564
rfemur -87.5524 -9.33182 -3.61767
rtibia 128.275
rfoot 12.9559 24.2029
rtoes -12.4032
lfemur -78.8687 2.15172 3.5007
ltibia 117.194
lfoot 13.554 -27.1499
ltoes -26.8056
6
root 2.91552 2.21373 19.8964 -71.5064 -84.046 11.5083
lowerback 10.2539 -0.805336 -6.85551
upperback 14.4727 -2.31582 -0.717965
thorax 10.1051 -2.29866 2.97522
lowerneck -32.016 6.30506 7.59995
upperneck 37.7662 4.91318 -0.0666716
head 20.6472 2.80483 -0.0953505
rclavicle -1.92821e-014 -1.70955e-014
rhumerus -92.3099 13.5927 -84.3832
rradius 34.7691
rwrist -20.4204
rhand -60.2674 -77.8873
rfingers 7.12502
rthumb 147.594 -74.9891
lclavicle -1.92821e-014 -1.70955e-014
lhumerus -83.0328 4.88756 47.5971
lradius 29.7738
lwrist 91.4107
lhand 116.326 -7.16499
lfingers 7.12502
lthumb 144.358 -33.5686
rfemur -87.6015 -9.43579 -3.5557
rtibia 128.47
rfoot 12.5883 24.4033
rtoes -13.4339
lfemur -78.9198 2.23588 3.61824
ltibia 117.45
lfoot 13.4035 -27.1737
ltoes -26.6668
7
root 2.88952 2.20831 19.8993 -71.2422 -84.1511 11.2023
lowerback 10.1829 -0.713414 -6.45133
upperback 14.3201 -2.14323 -0.779133
thorax 9.91267 -2.14449 2.69181
lowerneck -31.3184 5.92769 7.1664
upperneck 37.5746 4.47206 0.272346
head 20.283 2.62772 0.0069833
rclavicle -1.07344e-014 5.56597e-014
rhumerus -92.9249 13.0607 -84.1141
rradius 34.8944
rwrist -20.1782
rhand -60.2695 -77.3816
rfingers 7.12502
rthumb 147.592 -75.4952
lclavicle -1.07344e-014 5.56597e-014
lhumerus -83.1856 3.9724 47.9438
lradius 29.8312
lwrist 91.7017
lhand 116.256 -5.44003
lfingers 7.12502
lthumb 144.292 -31.8277
rfemur -87.6553 -9.53879 -3.43021
rtibia 128.657
rfoot 12.2354 24.563
rtoes -14.3997
lfemur -79.0423 2.3352 3.80282
ltibia 117.715
lfoot 13.2692 -27.2379
ltoes -26.5539
8
root 2.86379 2.20228 19.9024 -71.1362 -84.2283 11.0482
lowerback 10.1396 -0.711286 -6.3208
upperback 14.2332 -2.1192 -0.830348
thorax 9.82056 -2.10558 2.56753
lowerneck -30.8627 5.78383 7.05721
upperneck 37.4261 4.29062 0.393064
head 20.0527 2.56172 0.0229782
rclavicle 3.33958e-014 -1.55052e-014
rhumerus -93.3292 12.974 -83.9652
rradius 35.0194
rwrist -19.9877
rhand -60.2757 -76.8835
rfingers 7.12502
rthumb 147.586 -75.9945
lclavicle 3.33958e-014 -1.55052e-014
lhumerus -83.5277 3.50284 48.1203
lradius 29.8913
lwrist 91.9544
lhand 116.19 -3.76075
lfingers 7.12502
lthumb 144.229 -30.1332
rfemur -87.7175 -9.64424 -3.35731
rtibia 128.845
rfoot 11.9388 24.718
rtoes -15.1709
lfemur -79.1486 2.42134 3.94944
ltibia 117.972
lfoot 13.135 -27.2932
ltoes -26.4734
9
root 2.83834 2.19556 19.9057 -71.1913 -84.278 11.0487
lowerback 10.1218 -0.776518 -6.40555
upperback 14.1998 -2.20712 -0.878496
thorax 9.80371 -2.15368 2.56366
lowerneck -30.6034 5.81733 7.21467
upperneck 37.314 4.30149 0.337878
head 19.9258 2.58096 -0.0361821
rclavicle 1.49089e-014 1.86858e-014
rhumerus -93.5566 13.2168 -83.8964
rradius 35.1347
rwrist -19.8207
rhand -60.2832 -76.3613
rfingers 7.12502
rthumb 147.579 -76.5182
lclavicle 1.49089e-014 1.86858e-014
lhumerus -84.0028 3.37369 48.1674
lradius 29.9517
lwrist 92.1798
lhand 116.129 -2.30627
lfingers 7.12502
lthumb 144.171 -28.6646
rfemur -87.7885 -9.75051 -3.33703
rtibia 129.035
rfoot 11.7036 24.868
rtoes -15.7415
lfemur -79.2393 2.49801 4.05803
ltibia 118.224
lfoot 12.9959 -27.3438
ltoes -26.4369
10
root 2.81317 2.18812 19.9092 -71.3655 -84.3062 11.1642
lowerback 10.1301 -0.887937 -6.64028
upperback 14.206 -2.37299 -0.924863
thorax 9.83818 -2.26249 2.6432
lowerneck -30.5019 5.97218 7.55354
upperneck 37.2325 4.44475 0.159364
head 19.8792 2.6585 -0.146994
rclavicle 3.06128e-014 4.81059e-014
rhumerus -93.6468 13.686 -83.8704
rradius 35.2387
rwrist -19.6639
rhand -60.2909 -75.808
rfingers 7.12502
rthumb 147.571 -77.0729
lclavicle 3.06128e-014 4.81059e-014
lhumerus -84.5623 3.48595 48.1309
lradius 30.0121
lwrist 92.3895
lhand 116.068 -1.07299
lfingers 7.12502
lthumb 144.114 -27.4173
rfemur -87.8689 -9.85782 -3.36033
rtibia 129.225
rfoot 11.5276 25.0127
rtoes -16.125
lfemur -79.3219 2.56817 4.13638
ltibia 118.47
lfoot 12.8552 -27.3931
ltoes -26.439
11
root 2.7883 2.17996 19.9127 -71.6034 -84.32 11.342
lowerback 10.1542 -0.993281 -6.88061
upperback 14.2088 -2.53201 -0.973618
thorax 9.86058 -2.36784 2.72376
lowerneck -30.3945 6.11125 7.8636
upperneck 37.1477 4.5757 -0.00779135
head 19.8279 2.7287 -0.250495
rclavicle -3.35946e-014 8.34896e-015
rhumerus -93.7324 14.1404 -83.8118
rradius 35.3337
rwrist -19.4911
rhand -60.2968 -75.2238
rfingers 7.12502
rthumb 147.566 -77.6583
lclavicle -3.35946e-014 8.34896e-015
lhumerus -85.1159 3.58655 48.1118
lradius 30.0705
lwrist 92.6003
lhand 116.006 -0.0205777
lfingers 7.12502
lthumb 144.055 -26.3506
rfemur -87.9585 -9.96455 -3.41292
rtibia 129.416
rfoot 11.3957 25.1528
rtoes -16.3759
lfemur -79.4035 2.63469 4.19475
ltibia 118.714
lfoot 12.713 -27.444
ltoes -26.4709
12
root 2.76375 2.17111 19.9162 -71.7289 -84.3396 11.4151
lowerback 10.1831 -1.0871 -7.08181
upperback 14.2102 -2.67391 -1.01643
thorax 9.87524 -2.46039 2.7893
lowerneck -30.3019 6.21418 8.11241
upperneck 37.0624 4.67297 -0.151433
head 19.7752 2.78051 -0.340396
rclavicle 4.8901e-014 5.96354e-015
rhumerus -93.8113 14.5379 -83.709
rradius 35.4194
rwrist -19.3052
rhand -60.2999 -74.6189
rfingers 7.12502
rthumb 147.563 -78.2639
lclavicle 4.8901e-014 5.96354e-015
lhumerus -85.629 3.65127 48.1266
lradius 30.126
lwrist 92.8129
lhand 115.943 0.90631
lfingers 7.12502
lthumb 143.995 -25.4089
rfemur -88.0569 -10.0696 -3.46018
rtibia 129.604
rfoot 11.2907 25.281
rtoes -16.5589
lfemur -79.5084 2.70393 4.26286
ltibia 118.959
lfoot 12.5751 -27.5073
ltoes -26.5194
13
root 2.73954 2.16163 19.9196 -71.6297 -84.3782 11.2769
lowerback 10.2062 -1.16147 -7.20599
upperback 14.2144 -2.78515 -1.04767
thorax 9.88818 -2.52986 2.82448
lowerneck -30.2456 6.25845 8.26009
upperneck 36.9773 4.71201 -0.251386
head 19.7223 2.80189 -0.406067
rclavicle 4.39314e-014 -3.69739e-014
rhumerus -93.8824 14.8339 -83.553
rradius 35.4968
rwrist -19.1117
rhand -60.2994 -74.0088
rfingers 7.12502
rthumb 147.563 -78.8739
lclavicle 4.39314e-014 -3.69739e-014
lhumerus -86.0632 3.65512 48.1905
lradius 30.1766
lwrist 93.0259
lhand 115.878 1.78044
lfingers 7.12502
lthumb 143.934 -24.5198
rfemur -88.1639 -10.1719 -3.47955
rtibia 129.787
rfoot 11.1993 25.3932
rtoes -16.7241
lfemur -79.6524 2.77958 4.35977
ltibia 119.209
lfoot 12.446 -27.5889
ltoes -26.5728
14
root 2.71572 2.15153 19.9228 -71.2966 -84.4361 10.9189
lowerback 10.2247 -1.22838 -7.2794
upperback 14.2195 -2.88354 -1.06967
thorax 9.90007 -2.58792 2.84146
lowerneck -30.2142 6.27156 8.36008
upperneck 36.8937 4.71964 -0.336254
head 19.6719 2.80647 -0.463827
rclavicle 1.70955e-014 8.11041e-014
rhumerus -93.9452 15.0765 -83.3785
rradius 35.5663
rwrist -18.9207
rhand -60.2964 -73.4078
rfingers 7.12502
rthumb 147.566 -79.4742
lclavicle 1.70955e-014 8.11041e-014
lhumerus -86.4549 3.62965 48.2792
lradius 30.2272
lwrist 93.2412
lhand 115.815 2.64482
lfingers 7.12502
lthumb 143.874 -23.6406
rfemur -88.279 -10.2707 -3.46795
rtibia 129.967
rfoot 11.1133 25.4908
rtoes -16.9018
lfemur -79.8352 2.86118 4.48673
ltibia 119.462
lfoot 12.3277 -27.6878
ltoes -26.622
